<svg xmlns="http://www.w3.org/2000/svg" fill="none" viewBox="35.82129963898917 17.238 127.80685920577616 143.208" style="max-height: 500px" width="127.80685920577616" height="143.208">
<g clip-path="url(#clip0_120_328)">

<path style="visibility: visible; opacity: 1;" data-index="1" fill="#663399" d="M37.0431 49.25C43.1207 49.1695 49.1985 49.111 55.2764 49.0625C58.6609 49.0277 62.0455 48.9929 65.5326 48.957C68.2415 49.0537 70.9504 49.1504 73.7414 49.25C75.2528 51.6964 76.6983 54.1566 78.1202 56.6563C78.6114 57.5196 79.1026 58.383 79.6087 59.2725C81.1241 61.9452 82.6346 64.6206 84.1438 67.2969C86.3909 71.2798 88.666 75.245 90.9553 79.2031C92.9068 82.5974 94.8247 86.0108 96.7473 89.4219C98.0871 91.7884 99.4403 94.1462 100.802 96.5C103.183 100.618 105.522 104.76 107.858 108.904C109.254 111.371 110.666 113.828 112.085 116.281C112.501 117.005 112.918 117.729 113.347 118.474C114.091 119.762 114.839 121.046 115.595 122.327C115.904 122.861 116.214 123.395 116.533 123.945C116.8 124.399 117.067 124.853 117.342 125.321C117.853 126.5 117.853 126.5 117.483 128.375C116.73 129.765 115.945 131.138 115.143 132.5C113.441 135.412 111.746 138.325 110.092 141.266C108.377 144.309 106.654 147.348 104.926 150.383C104.476 151.173 104.025 151.964 103.562 152.778C102.411 154.779 101.243 156.768 100.06 158.75C98.3572 158.176 98.0886 156.952 97.257 155.375C96.0473 153.118 94.8241 150.879 93.5269 148.672C91.356 144.963 89.252 141.217 87.1412 137.473C84.7888 133.307 82.4156 129.154 80.0431 125C79.1163 123.375 78.1895 121.75 77.2629 120.125C76.8061 119.324 76.3493 118.523 75.8786 117.698C74.9325 116.039 73.9865 114.379 73.0405 112.72C72.5684 111.892 72.0963 111.064 71.6099 110.211C71.1564 109.414 70.703 108.618 70.2357 107.797C69.3851 106.309 68.5292 104.825 67.667 103.344C67.2938 102.702 66.9206 102.06 66.5361 101.398C66.0437 100.558 66.0437 100.558 65.5413 99.7007C64.8448 98.375 64.8448 98.375 64.8448 97.25C69.6156 97.25 74.3864 97.25 79.3017 97.25C79.9439 98.387 80.5862 99.5239 81.2478 100.695C81.6559 101.418 82.064 102.14 82.4844 102.884C83.2749 104.284 84.0647 105.684 84.8534 107.085C86.7929 110.528 88.7479 113.961 90.7236 117.383C92.6436 120.708 94.5604 124.035 96.4693 127.367C96.9342 128.178 97.3992 128.989 97.8782 129.824C98.9483 131.75 98.9483 131.75 99.319 132.875C99.5636 132.999 99.8083 133.123 100.06 133.25C100.187 132.798 100.187 132.798 100.315 132.336C100.83 130.923 101.51 129.766 102.312 128.504C102.819 127.427 102.819 127.427 102.285 125.375C101.563 124.011 100.8 122.67 100.014 121.344C99.5438 120.543 99.0736 119.742 98.5892 118.917C98.0961 118.078 97.6029 117.239 97.0948 116.375C96.1498 114.728 95.2076 113.08 94.2683 111.43C93.8053 110.617 93.3423 109.805 92.8652 108.967C91.6684 106.861 90.4766 104.751 89.2872 102.641C87.2948 99.108 85.2701 95.5951 83.2418 92.0835C79.8724 86.2387 76.5434 80.3707 73.2317 74.4922C71.4121 71.2655 69.5769 68.0531 67.6627 64.8828C67.1822 64.0672 66.7473 63.2242 66.3276 62.375C64.7909 62.4698 63.2541 62.5645 61.6708 62.6621C45.4693 63.1451 45.4693 63.1451 41.3278 59.7163C39.8599 56.9787 38.9063 54.5129 38.1552 51.5C37.7882 50.7575 37.4212 50.015 37.0431 49.25Z"/>
<path style="visibility: visible; opacity: 1; fill: rgb(121, 40, 202);" data-index="2" fill="#7953A9" d="M81.1552 49.25C107.945 49.25 134.735 49.25 162.336 49.25C160.032 53.5241 157.661 57.7616 155.293 62C138.167 62.1237 121.041 62.2475 103.397 62.375C104.375 64.1075 105.354 65.84 106.362 67.625C106.362 67.8725 106.362 68.12 106.362 68.375C121.164 68.375 135.965 68.375 151.216 68.375C148.827 74.4164 145.002 80.0202 141.757 85.6265C140.065 88.5726 138.414 91.5417 136.762 94.5107C135.514 96.7361 134.235 98.9405 132.947 101.142C129.215 107.559 125.576 114.032 121.931 120.5C121.686 120.5 121.442 120.5 121.19 120.5C120.929 120.009 120.668 119.518 120.399 119.012C117.981 114.489 115.482 110.025 112.909 105.591C110.58 101.574 108.287 97.536 105.991 93.5C105.658 92.9165 105.325 92.3331 104.982 91.7319C104.711 91.2558 104.44 90.7796 104.161 90.2891C103.936 89.8941 103.711 89.4992 103.479 89.0923C103.026 88.25 103.026 88.25 103.026 87.875C107.919 87.875 112.812 87.875 117.853 87.875C121.19 93.875 121.19 93.875 121.19 94.625C122.941 92.8529 123.898 90.653 125.082 88.4609C127.749 83.5276 127.749 83.5276 128.974 81.875C125.795 81.8866 125.795 81.8866 122.552 81.8984C119.817 81.8907 117.081 81.883 114.262 81.875C111.532 81.875 108.801 81.875 105.987 81.875C103.787 81.7513 101.586 81.6275 99.319 81.5C97.7747 79.0005 96.3001 76.4839 94.8475 73.9297C94.3539 73.062 93.8603 72.1943 93.3517 71.3003C91.7697 68.5112 90.1921 65.7196 88.6182 62.9258C86.7705 59.6629 84.899 56.4139 83.0289 53.1641C81.8966 51.125 81.8965 51.125 81.1552 49.25Z"/>
<path style="visibility: visible;" data-index="3" fill="#22277A" d="M101.172 18.875C102.35 19.4877 103.506 20.1425 104.648 20.8203C105.335 21.2259 106.023 21.6315 106.731 22.0493C107.833 22.7055 107.833 22.7055 108.957 23.375C110.494 24.2815 112.03 25.1878 113.567 26.0937C114.316 26.5365 115.065 26.9793 115.836 27.4355C117.37 28.3397 118.906 29.2375 120.448 30.125C123.539 31.9036 126.606 33.7241 129.675 35.5405C132.346 37.1145 135.03 38.6653 137.719 40.209C138.983 41 138.983 41 139.353 41.75C135.423 41.8617 131.492 41.9415 127.561 42.0078C125.372 42.0557 123.183 42.1035 120.928 42.1528C115.008 41.758 112.525 41.0855 107.845 37.625C107.104 37.1629 106.364 36.7007 105.6 36.2246C104.394 35.4612 103.19 34.6956 101.986 33.9277C100.436 32.9224 100.436 32.9224 98.5776 33.5C95.1043 35.2587 91.8799 37.269 88.7616 39.6157C82.9334 42.5287 78.2565 42.1856 71.7953 42.0312C69.5915 41.9906 67.3877 41.95 65.1171 41.9082C63.437 41.856 61.7569 41.8038 60.0259 41.75C60.0259 41.5025 60.0259 41.255 60.0259 41C60.3542 40.8269 60.6824 40.6539 61.0207 40.4756C64.1317 38.8184 67.1751 37.0733 70.1981 35.2578C71.9954 34.1859 73.8049 33.1379 75.618 32.0937C79.1676 30.0474 82.6975 27.9683 86.2247 25.8828C99.0415 18.3227 99.0415 18.3227 101.172 18.875Z"/>
<path style="visibility: visible;" data-index="4" fill="#22277A" d="M41.8621 73.625C44.2526 76.0433 45.6565 79.4561 47.2805 82.4273C48.7916 85.1854 48.7916 85.1854 50.4372 87.2876C54.4085 92.7694 54.2413 97.1315 54.0717 103.883C53.7264 109.941 53.7264 109.941 56.1336 115.15C58.3949 116.384 60.5279 117.151 62.9914 117.875C67.5414 120.207 70.366 122.263 72.6293 126.875C73.3268 128.12 74.03 129.362 74.7376 130.602C75.1113 131.269 75.485 131.936 75.87 132.623C77.5465 135.576 79.2889 138.488 81.035 141.399C81.3193 141.927 81.6036 142.456 81.8966 143C81.7742 143.247 81.6519 143.495 81.5259 143.75C81.2769 143.59 81.028 143.43 80.7715 143.265C77.3952 141.128 73.9345 139.156 70.4631 137.182C67.4847 135.476 64.5317 133.729 61.5781 131.98C59.1732 130.559 56.7624 129.149 54.3497 127.742C53.556 127.279 52.7623 126.816 51.9445 126.339C50.4636 125.476 48.9819 124.615 47.4992 123.755C46.8622 123.385 46.2252 123.014 45.569 122.633C45.0108 122.309 44.4527 121.986 43.8777 121.653C42.6035 120.875 42.6035 120.875 41.8621 120.125C41.8072 112.36 41.8002 104.594 41.8157 96.8281C41.8224 92.5191 41.8291 88.2101 41.836 83.7705C41.8446 80.4225 41.8532 77.0745 41.8621 73.625Z"/>
<path style="visibility: visible; opacity: 1;" data-index="5" fill="#22277A" d="M157.147 73.25C157.269 73.25 157.391 73.25 157.517 73.25C157.597 81.0233 157.655 88.7968 157.703 96.5703C157.737 100.899 157.771 105.228 157.807 109.688C157.711 113.132 157.616 116.576 157.517 120.125C149.65 125.099 141.526 129.666 133.488 134.349C126.185 138.517 126.185 138.517 119.031 142.936C118.765 143.081 118.498 143.226 118.224 143.375C117.979 143.251 117.735 143.128 117.483 143C117.961 142.176 117.961 142.176 118.449 141.334C121.137 136.687 123.785 132.021 126.366 127.312C126.738 126.672 127.109 126.033 127.491 125.375C127.861 124.737 128.231 124.1 128.612 123.443C130.512 121.1 132.533 119.995 135.16 118.555C136.048 118.062 136.937 117.57 137.852 117.062C140.466 115.625 140.466 115.625 143.015 114.685C145.377 112.985 145.377 112.985 145.221 109.011C145.15 107.396 145.079 105.781 145.006 104.117C144.969 95.3884 146.189 90.6697 151.215 83.75C152.206 82.0732 153.18 80.386 154.135 78.6875C154.554 77.9643 154.974 77.2412 155.406 76.4961C156.016 75.4307 156.602 74.351 157.147 73.25Z"/>
</g>
<defs>
<clipPath id="clip0_120_328">
<rect transform="translate(-56 -31)" fill="white" height="252" width="301"/>
</clipPath>
</defs>
</svg>